<svg xmlns="http://www.w3.org/2000/svg" width="1400" height="560" viewBox="0 0 1400 560" font-family="'Helvetica Neue',Helvetica,Arial,sans-serif">
  <rect width="1400" height="560" fill="#1a1a1a"/>
  <g transform="translate(1000 60) scale(11)" opacity="0.09">
    <path d="M7.5 30V12L13.25 21L19 12V30" fill="none" stroke="#fb411f" stroke-width="3.8" stroke-linecap="round" stroke-linejoin="round"/>
    <path d="M32.5 11V30" fill="none" stroke="#fb411f" stroke-width="3.8" stroke-linecap="round" stroke-linejoin="round"/>
    <circle cx="27.8" cy="25.3" r="4.7" fill="none" stroke="#fb411f" stroke-width="3.8"/>
  </g>
  <g transform="translate(110 176) scale(3.1)">
    <rect width="40" height="40" rx="10" fill="#fb411f"/>
    <path d="M7.5 30V12L13.25 21L19 12V30" fill="none" stroke="#fff" stroke-width="3.8" stroke-linecap="round" stroke-linejoin="round"/>
    <path d="M32.5 11V30" fill="none" stroke="#fff" stroke-width="3.8" stroke-linecap="round" stroke-linejoin="round"/>
    <circle cx="27.8" cy="25.3" r="4.7" fill="none" stroke="#fff" stroke-width="3.8"/>
  </g>
  <text x="266" y="248" font-size="72" font-weight="800" letter-spacing="-3" fill="#ffffff">Markdownr</text>
  <text x="270" y="300" font-size="27" fill="#9a9a96">Save any page as clean Markdown — even the ones an AI can't open.</text>
  <g transform="translate(270 348)" font-family="ui-monospace,Menlo,monospace" font-size="18" fill="#6f6f6b">
    <rect x="0" y="-12" width="11" height="11" rx="2.5" fill="#fb411f"/><text x="22" y="0">100% local</text>
    <rect x="176" y="-12" width="11" height="11" rx="2.5" fill="#fb411f"/><text x="198" y="0">zero tracking</text>
    <rect x="372" y="-12" width="11" height="11" rx="2.5" fill="#fb411f"/><text x="394" y="0">open source</text>
  </g>
</svg>
